# xmcd CD database file
#
# Track frame offsets:
#	150
#	23822
#	41255
#
# Disc length: 864 seconds
#
# Revision: 0
# Processed by: cddbd v1.5PL3 Copyright (c) Steve Scherf et al.
# Submitted via: CDex 1.51
#
DISCID=17035e03
DTITLE=Something Else - あいのうた
DYEAR=1900
DGENRE=JPop
TTITLE0=あいのうた
TTITLE1=花火が消えるまで
TTITLE2=あいのうた (backing track)
EXTD=
EXTT0=
EXTT1=
EXTT2=
PLAYORDER=
